<svg xmlns="http://www.w3.org/2000/svg" width="256" height="256" viewBox="0 0 256 256">
<defs>
    <radialGradient id="gradYellow" cx="50%" cy="50%" r="40%"><stop offset="0%" stop-color="#FFD60A" stop-opacity="0.9"/><stop offset="100%" stop-color="#FFD60A" stop-opacity="0"/></radialGradient>
    <radialGradient id="gradRed" cx="83.1%" cy="17.1%" r="65%"><stop offset="0%" stop-color="#FF3B30" stop-opacity="0.9"/><stop offset="100%" stop-color="#FF3B30" stop-opacity="0"/></radialGradient>
    <radialGradient id="gradGreen" cx="83.1%" cy="82.9%" r="65%"><stop offset="0%" stop-color="#4CD964" stop-opacity="0.9"/><stop offset="100%" stop-color="#4CD964" stop-opacity="0"/></radialGradient>
    <radialGradient id="gradBlue" cx="17.9%" cy="50%" r="65%"><stop offset="0%" stop-color="#007AFF" stop-opacity="0.9"/><stop offset="100%" stop-color="#007AFF" stop-opacity="0"/></radialGradient>

    <mask id="logoMask">
      
            <g transform="translate(13 30)">
              <g transform="scale(2.2)">
                <path d="M 74.37 59.915 c -4.756 0 -8.995 2.224 -11.754 5.68 L 30.112 49.018 c 0.356 -1.281 0.561 -2.625 0.561 -4.018 c 0 -1.393 -0.205 -2.737 -0.561 -4.018 l 32.505 -16.577 c 2.759 3.456 6.998 5.681 11.754 5.681 c 8.295 0 15.043 -6.748 15.043 -15.043 C 89.413 6.748 82.665 0 74.37 0 S 59.327 6.748 59.327 15.042 c 0 1.393 0.205 2.737 0.561 4.018 L 27.384 35.638 c -2.759 -3.456 -6.998 -5.681 -11.754 -5.681 C 7.335 29.958 0.587 36.706 0.587 45 c 0 8.295 6.748 15.043 15.042 15.043 c 4.756 0 8.995 -2.224 11.754 -5.68 L 59.888 70.94 c -0.356 1.281 -0.561 2.624 -0.561 4.017 C 59.327 83.252 66.075 90 74.37 90 s 15.043 -6.748 15.043 -15.043 C 89.413 66.663 82.665 59.915 74.37 59.915 z M 74.37 6 c 4.986 0 9.043 4.057 9.043 9.042 c 0 4.986 -4.057 9.043 -9.043 9.043 s -9.043 -4.057 -9.043 -9.043 C 65.327 10.057 69.384 6 74.37 6 z M 15.63 54.043 c -4.986 0 -9.042 -4.057 -9.042 -9.043 c 0 -4.986 4.057 -9.042 9.042 -9.042 c 4.986 0 9.043 4.057 9.043 9.042 C 24.673 49.986 20.616 54.043 15.63 54.043 z M 74.37 84 c -4.986 0 -9.043 -4.057 -9.043 -9.043 c 0 -4.985 4.057 -9.042 9.043 -9.042 s 9.043 4.057 9.043 9.042 C 83.413 79.943 79.356 84 74.37 84 z" fill="white" />
            </g>
              </g>
    </mask>
</defs>
<!--
<rect width="100%" height="100%" fill="#E0E0E0" /> <circle cx="128" cy="128" r="120" fill="#FF3B3044" /> 
  <circle cx="50%" cy="50%" r="10" fill="#9999ff44" />
-->
  <g mask="url(#logoMask)">
    <rect width="100%" height="100%" fill="url(#gradBlue)" />
    <rect width="100%" height="100%" fill="url(#gradYellow)" />
    <rect width="100%" height="100%" fill="url(#gradRed)" />
    <rect width="100%" height="100%" fill="url(#gradGreen)" />
</g>
</svg>
